<svg 
          width="36.000003814697266" 
          height="21.999996185302734" fill="none" 
          xmlns="http://www.w3.org/2000/svg">
          <path d="M 33.0124580621715 21.95734937836663 C 32.4904574505627 21.965127340110065 31.97542771897364 21.842597149276852 31.518685185908616 21.601967454612485 L 19.56850075123272 15.361461741121364 L 19.56850075123272 19.029003085810174 C 19.56740717352012 20.044208118563944 18.997552885730318 20.981824216644192 18.073403022241063 21.488976055995174 C 17.149253158751808 21.996127895346156 16.011058200843205 21.995848668773707 15.087182122444068 21.488245347465117 L 1.4789117325354149 13.925718443792752 C 0.5900429287064325 13.43083719519748 0.03166813464206042 12.535195531889574 0.0013032841536144808 11.555611777409247 C -0.029061566334831455 10.57602802292892 0.4728649579588765 9.650621510254005 1.3295344983306074 9.106739747480981 L 14.937805689561475 0.4780665641682649 C 15.85366836773918 -0.10343495284575599 17.03138738643639 -0.15843773684568213 18.002681528835534 0.33492829135962876 C 18.97397567123468 0.8282943195649397 19.581402852910717 1.7900570343436044 19.583438821892827 2.8378024904471766 L 19.583438821892827 7.244538548349732 C 19.583438821892827 8.02962665462507 18.9146539657311 8.66606624336631 18.089665945629942 8.66606624336631 C 17.264677925528783 8.66606624336631 16.595893069367058 8.02962665462507 16.595893069367058 7.244538548349732 L 16.595893069367058 2.795156700266913 L 2.9726846087982985 11.509121633399463 L 16.58095499870695 19.071648537071827 L 16.58095499870695 15.418322794695047 C 16.56587260240353 14.3955102252901 17.129336829313218 13.443833495433703 18.056464851332358 12.926224407002108 C 18.983592873351498 12.408615318570513 20.131444031058052 12.404876368429697 21.062273627495603 12.916433726104005 L 33.0124580621715 19.15694079526958 L 33.0124580621715 3.861302471529345 L 24.662267455930326 7.471982762644472 C 23.91152843866085 7.797794312768344 23.02538726887482 7.482756815898774 22.683017255223746 6.768326716292201 C 22.340647241572672 6.053896616685628 22.671695640755654 5.210614002735387 23.422434658025132 4.884802452611514 L 31.772626688839132 1.274122076766734 C 32.69750887179708 0.872655736947632 33.773440203243496 0.9462841958017826 34.6284450412315 1.469552293047621 C 35.483449879219506 1.9928203902934594 36.00018536732655 2.893913771318811 36.000003814697266 3.861302471529345 L 36.000003814697266 19.15694079526958 C 36.000003814697266 20.727117007820254 34.662434102373815 21.999996185302734 33.0124580621715 21.999996185302734 L 33.0124580621715 21.95734937836663 Z" fill="rgb(15.000000055879354,30.00000011175871,54.00000058114529)"/>
        </svg>